<svg xmlns="http://www.w3.org/2000/svg" viewBox="0 0 1717.42 900"><defs><style>.cls-1{isolation:isolate;}.cls-2{fill:#38ae51;}.cls-3,.cls-5,.cls-7,.cls-8{mix-blend-mode:multiply;}.cls-3{opacity:0.4;}.cls-4{fill:#93f1a7;}.cls-5,.cls-8,.cls-9{opacity:0.3;}.cls-6{fill:#4be86c;}.cls-10,.cls-6,.cls-7,.cls-8{stroke:#000;}.cls-12,.cls-13,.cls-16,.cls-6,.cls-7,.cls-8{stroke-linecap:round;}.cls-12,.cls-13,.cls-6,.cls-7,.cls-8{stroke-linejoin:bevel;}.cls-6,.cls-7,.cls-8{stroke-width:0.69px;}.cls-7{opacity:0.6;}.cls-10{fill:#847760;stroke-miterlimit:10;stroke-width:0.82px;}.cls-11{opacity:0.5;}.cls-12,.cls-13{fill:#fff;}.cls-12,.cls-13,.cls-16{stroke:#fff;}.cls-12{stroke-width:0.33px;mix-blend-mode:soft-light;}.cls-13{stroke-width:0.26px;}.cls-14{fill:#7fa9ff;}.cls-15{fill:#7fcbff;}.cls-16{fill:none;stroke-linejoin:round;stroke-width:1.65px;}</style></defs><g class="cls-1"><g id="Camada_1" data-name="Camada 1"><path class="cls-2" d="M1876.18,1017.92h6.69l-.1-3.11-.08-2.37H1861L1860.6,992a2.39,2.39,0,0,0-2.39-2.38H1857a1.46,1.46,0,0,0-.29,0h-.11l-.21.05-.16,0-.15.05-.1,0h0l-.13.07-.14.08-.08.06-.09.07-.08.06-.08.08-.07.07-.08.08-.07.08a.91.91,0,0,0-.11.16l-.11.16s0,0,0,.08l-.06.11,0,.08,0,.09,0,.12,0,.09s0,.09,0,.14,0,.08,0,.11,0,.06,0,.09v0a.31.31,0,0,1,0,.1v26h21.59Z" transform="translate(-180.47 -166)"/><path class="cls-3" d="M1876.24,1015l6.45-.22h.08l.1,3.11h-28.28v-26a.31.31,0,0,0,0-.1v0s0-.06,0-.09,0-.07,0-.11,0-.1,0-.14l0-.09,0-.12,0-.09,0-.08.06-.11s0,0,0-.08l.11-.16a.91.91,0,0,1,.11-.16l.07-.08.08-.08.07-.07.08-.08.08-.06.09-.07.08-.06.14-.08.13-.07h0l.1,0,.15-.05.16,0,.21-.05h.11c.38,2.24.34,4.56.57,6.8.39,3.73,1.5,7.37,1.73,11.12.13,2.21.12,4.81,1.91,6.13a6.44,6.44,0,0,0,3.41.93q2.7.21,5.4.3h.09Z" transform="translate(-180.47 -166)"/><path class="cls-4" d="M1891.89,1018.63V998.74a2.37,2.37,0,0,1,2.38-2.38h1.24a2.38,2.38,0,0,1,2.39,2.38v25.9h-28.29v-6Z" transform="translate(-180.47 -166)"/><path class="cls-5" d="M1888.35,1024.64h-5.66v-6h4.65s0,0,0,.06a42.08,42.08,0,0,0,.77,5.26C1888.19,1024.19,1888.27,1024.41,1888.35,1024.64Z" transform="translate(-180.47 -166)"/><path class="cls-6" d="M1695.72,811h0a6.5,6.5,0,0,1,6.5,6.5v71.61a.64.64,0,0,1-.64.64h-11.71a.64.64,0,0,1-.64-.64V817.5a6.5,6.5,0,0,1,6.5-6.5Z"/><path class="cls-7" d="M1872.86,1049.49a11.35,11.35,0,0,1-.55,5.55h-1.53a.64.64,0,0,1-.64-.64V982.79a6.57,6.57,0,0,1,.3-1.95,10.2,10.2,0,0,1,.7,2.87c2,14.41-1.31,29.22,1,43.59.21,1.35.48,2.7.65,4a30.39,30.39,0,0,1-.27,9.47,15.55,15.55,0,0,0-.55,5.32C1872.14,1047.28,1872.63,1048.35,1872.86,1049.49Z" transform="translate(-180.47 -166)"/><path class="cls-8" d="M1876.23,1015.89c-.21,13.5-3.33,27.05-1.41,40.39h-4.39a.64.64,0,0,1-.64-.64V984a6.51,6.51,0,0,1,1.85-4.55,23,23,0,0,1,1.31,3c1.91,6,2.32,12.27,2.72,18.51C1876,1006,1876.31,1010.93,1876.23,1015.89Z" transform="translate(-180.47 -166)"/><path class="cls-9" d="M1888.35,1024.64h-5.66v-6h4.65s0,0,0,.06a42.08,42.08,0,0,0,.77,5.26C1888.19,1024.19,1888.27,1024.41,1888.35,1024.64Z" transform="translate(-180.47 -166)"/><path class="cls-7" d="M1872.86,1049.49a11.35,11.35,0,0,1-.55,5.55h-1.53a.64.64,0,0,1-.64-.64V982.79a6.57,6.57,0,0,1,.3-1.95,10.2,10.2,0,0,1,.7,2.87c2,14.41-1.31,29.22,1,43.59.21,1.35.48,2.7.65,4a30.39,30.39,0,0,1-.27,9.47,15.55,15.55,0,0,0-.55,5.32C1872.14,1047.28,1872.63,1048.35,1872.86,1049.49Z" transform="translate(-180.47 -166)"/><polygon class="cls-10" points="1704.08 899.56 1688.52 899.56 1674.03 869.86 1715.83 869.86 1704.08 899.56"/><path class="cls-11" d="M1879.37,1066h-9.67l-14.49-29.7h19.27a30.55,30.55,0,0,1,2.42,11.85c0,2.52-.29,5.09.37,7.51.34,1.25.93,2.41,1.38,3.62A13.31,13.31,0,0,1,1879.37,1066Z" transform="translate(-180.47 -166)"/><rect class="cls-12" x="1700.1" y="816.04" width="0.88" height="47.02" rx="0.44"/><rect class="cls-13" x="1700.72" y="816.13" width="0.53" height="47.02" rx="0.27"/><rect class="cls-12" x="1859.36" y="992.11" width="0.88" height="13.43" rx="0.24" transform="translate(3539.13 1831.66) rotate(180)"/><rect class="cls-12" x="1895.95" y="998.83" width="0.88" height="13.43" rx="0.24" transform="translate(3612.31 1845.09) rotate(180)"/><path d="M260.33,166c-34.86,0-63.13,22.32-63.13,49.86a42.11,42.11,0,0,0,8.85,25.46c-4.91,8.54-18,31.48-17.39,32.71s32.31-9.36,43-13.76a76.66,76.66,0,0,0,28.69,5.45c34.87,0,63.13-22.32,63.13-49.86S295.2,166,260.33,166Z" transform="translate(-180.47 -166)"/><path d="M252.16,166C217.3,166,189,188.32,189,215.86a42.11,42.11,0,0,0,8.85,25.46c-4.91,8.54-18,31.48-17.39,32.71s32.31-9.36,43-13.76a76.66,76.66,0,0,0,28.69,5.45c34.87,0,63.13-22.32,63.13-49.86S287,166,252.16,166Z" transform="translate(-180.47 -166)"/><path class="cls-5" d="M271.77,257.62c-14.34,0-27.07-6.1-37.42-15.77s-14.89-24.14-15.5-38.07A41.11,41.11,0,0,1,223.4,183a40.15,40.15,0,0,1,8-14.28c-24.69,6.77-42.42,25.3-42.42,47.1a42.11,42.11,0,0,0,8.85,25.46c-4.91,8.54-18,31.48-17.39,32.71s32.31-9.36,43-13.76a76.66,76.66,0,0,0,28.69,5.45c17.51,0,33.34-5.63,44.78-14.72A53.5,53.5,0,0,1,271.77,257.62Z" transform="translate(-180.47 -166)"/><path class="cls-14" d="M259.92,171.63c-31.73,0-57.46,20-57.46,44.62A37.2,37.2,0,0,0,210.52,239c-4.48,7.64-16.38,28.17-15.83,29.27s29.4-8.38,39.11-12.32a70.93,70.93,0,0,0,26.12,4.88c31.73,0,57.46-20,57.46-44.61S291.65,171.63,259.92,171.63Z" transform="translate(-180.47 -166)"/><path class="cls-15" d="M252.48,171.63c-31.73,0-57.46,20-57.46,44.62A37.27,37.27,0,0,0,203.08,239c-4.47,7.64-16.38,28.17-15.83,29.27s29.41-8.38,39.12-12.32a70.87,70.87,0,0,0,26.11,4.88c31.74,0,57.46-20,57.46-44.61S284.22,171.63,252.48,171.63Z" transform="translate(-180.47 -166)"/><path class="cls-5" d="M270.33,253.61c-13.05,0-24.64-5.46-34.06-14.11s-13.55-21.6-14.11-34.06a36.25,36.25,0,0,1,4.15-18.56,35.69,35.69,0,0,1,7.32-12.78C211.16,180.16,195,196.74,195,216.25A37.27,37.27,0,0,0,203.08,239c-4.47,7.64-16.38,28.17-15.83,29.27s29.41-8.38,39.12-12.32a70.87,70.87,0,0,0,26.11,4.88c15.94,0,30.35-5,40.76-13.17A49.29,49.29,0,0,1,270.33,253.61Z" transform="translate(-180.47 -166)"/><path class="cls-16" d="M220,182.11c7-4,25.58-13.44,46.64-8.11a52.44,52.44,0,0,1,10.81,4.05" transform="translate(-180.47 -166)"/></g></g></svg>