<svg xmlns="http://www.w3.org/2000/svg" viewBox="0 0 283.53 214.41"><defs><style>.cls-1{isolation:isolate;}.cls-2{mix-blend-mode:multiply;opacity:0.3;}.cls-3{fill:#7fa9ff;}.cls-4{fill:#7fcbff;}.cls-5{fill:none;stroke:#fff;stroke-linecap:round;stroke-linejoin:round;stroke-width:3.27px;}</style></defs><g class="cls-1"><g id="Camada_1" data-name="Camada 1"><path d="M920.82,347c-69.13,0-125.17,44.26-125.17,98.87,0,18.44,6.41,35.7,17.55,50.48-9.75,16.94-35.68,62.43-34.49,64.86s64.07-18.56,85.22-27.29a152,152,0,0,0,56.89,10.82c69.14,0,125.18-44.27,125.18-98.87S990,347,920.82,347Z" transform="translate(-762.47 -347)"/><path d="M904.62,347c-69.13,0-125.17,44.26-125.17,98.87,0,18.44,6.41,35.7,17.55,50.48-9.75,16.94-35.68,62.43-34.49,64.86s64.07-18.56,85.22-27.29a152,152,0,0,0,56.89,10.82c69.14,0,125.18-44.27,125.18-98.87S973.76,347,904.62,347Z" transform="translate(-762.47 -347)"/><path class="cls-2" d="M943.51,528.67c-28.44,0-53.68-12.09-74.21-31.27s-29.52-47.88-30.74-75.48a81.59,81.59,0,0,1,9-41.13,79.56,79.56,0,0,1,15.94-28.31c-48.94,13.43-84.09,50.15-84.09,93.39,0,18.44,6.41,35.7,17.55,50.48-9.75,16.94-35.68,62.43-34.49,64.86s64.07-18.56,85.22-27.29a152,152,0,0,0,56.89,10.82c34.71,0,66.12-11.17,88.79-29.19C978,523.92,960.49,528.67,943.51,528.67Z" transform="translate(-762.47 -347)"/><path class="cls-3" d="M920,358.17c-62.92,0-113.93,39.6-113.93,88.46,0,16.51,5.84,31.95,16,45.17-8.87,15.16-32.47,55.86-31.38,58s58.31-16.61,77.56-24.42A140.52,140.52,0,0,0,920,535.1c62.93,0,113.94-39.61,113.94-88.47S982.93,358.17,920,358.17Z" transform="translate(-762.47 -347)"/><path class="cls-4" d="M905.26,358.17c-62.92,0-113.93,39.6-113.93,88.46,0,16.51,5.84,31.95,16,45.17-8.87,15.16-32.48,55.86-31.39,58s58.31-16.61,77.56-24.42a140.53,140.53,0,0,0,51.79,9.68c62.92,0,113.93-39.61,113.93-88.47S968.18,358.17,905.26,358.17Z" transform="translate(-762.47 -347)"/><path class="cls-2" d="M940.65,520.72c-25.88,0-48.85-10.82-67.54-28s-26.87-42.84-28-67.54a71.89,71.89,0,0,1,8.23-36.8,71,71,0,0,1,14.51-25.33c-44.55,12-76.54,44.88-76.54,83.56,0,16.51,5.84,31.95,16,45.17-8.87,15.16-32.48,55.86-31.39,58s58.31-16.61,77.56-24.42a140.53,140.53,0,0,0,51.79,9.68c31.59,0,60.17-10,80.81-26.12A97.8,97.8,0,0,1,940.65,520.72Z" transform="translate(-762.47 -347)"/><path class="cls-5" d="M840.92,378.94c13.85-8,50.72-26.65,92.49-16.08a103.92,103.92,0,0,1,21.44,8" transform="translate(-762.47 -347)"/></g></g></svg>