<svg id="Camada_1" data-name="Camada 1" xmlns="http://www.w3.org/2000/svg" viewBox="0 0 230.66 264.48"><defs><style>.cls-1{fill:#ffe559;}.cls-2{font-size:128.43px;}.cls-2,.cls-4{fill:#424242;}.cls-2,.cls-3,.cls-4,.cls-5{font-family:ConcertOne-Regular, Concert One;}.cls-3{font-size:118.16px;}.cls-3,.cls-5{fill:#66adff;}.cls-4{font-size:59.65px;}.cls-5{font-size:56.18px;}</style></defs><path class="cls-1" d="M1004.62,480.74c27.76,15-39,50.5-44,55.5-17.18,17.18-72.39-28.57-44-55.5,29-27.5,24.68-70.23,44-55.5C981.62,441.24,966.62,460.24,1004.62,480.74Z" transform="translate(-844.67 -346.58)"/><path class="cls-1" d="M1060.22,478c62.32,33.62-87.59,113.42-98.82,124.64C922.81,641.2,798.82,538.44,862.59,478c65.13-61.76,55.4-157.71,98.81-124.64C1008.57,389.26,974.88,431.93,1060.22,478Z" transform="translate(-844.67 -346.58)"/><text class="cls-2" transform="translate(70.23 142.2) scale(0.96 1)">2</text><text class="cls-3" transform="translate(74.72 136.76) scale(0.96 1)">2</text><text class="cls-4" transform="translate(40.49 201.16)">Nível</text><text class="cls-5" transform="translate(44.05 197.82)">Nível</text></svg>